<svg width="327" height="279" viewBox="0 0 327 279" fill="none" xmlns="http://www.w3.org/2000/svg">
<rect x="3" width="321" height="75" rx="37.5" fill="#FFAE52"/>
<ellipse cx="44.6269" cy="34.0814" rx="11.3372" ry="4" transform="rotate(-30 44.6269 34.0814)" fill="white"/>
<ellipse cx="194.818" cy="52.1327" rx="11.3372" ry="4" transform="rotate(-30 194.818 52.1327)" fill="white"/>
<ellipse cx="87.256" cy="53.3516" rx="11.3372" ry="4" transform="rotate(-140 87.256 53.3516)" fill="white"/>
<ellipse cx="214.256" cy="19.3516" rx="11.3372" ry="4" transform="rotate(-140 214.256 19.3516)" fill="white"/>
<ellipse cx="281.256" cy="26.3516" rx="11.3372" ry="4" transform="rotate(-140 281.256 26.3516)" fill="white"/>
<ellipse cx="135.442" cy="29.1724" rx="9.92278" ry="4" transform="rotate(-50 135.442 29.1724)" fill="white"/>
<ellipse cx="256.442" cy="54.1724" rx="9.92278" ry="4" transform="rotate(-50 256.442 54.1724)" fill="white"/>
<rect x="3" y="204" width="321" height="75" rx="37.5" fill="#FFAE52"/>
<ellipse cx="44.6269" cy="238.081" rx="11.3372" ry="4" transform="rotate(-30 44.6269 238.081)" fill="white"/>
<ellipse cx="194.818" cy="256.133" rx="11.3372" ry="4" transform="rotate(-30 194.818 256.133)" fill="white"/>
<ellipse cx="87.256" cy="257.352" rx="11.3372" ry="4" transform="rotate(-140 87.256 257.352)" fill="white"/>
<ellipse cx="214.256" cy="223.352" rx="11.3372" ry="4" transform="rotate(-140 214.256 223.352)" fill="white"/>
<ellipse cx="281.256" cy="230.352" rx="11.3372" ry="4" transform="rotate(-140 281.256 230.352)" fill="white"/>
<ellipse cx="135.442" cy="233.172" rx="9.92278" ry="4" transform="rotate(-50 135.442 233.172)" fill="white"/>
<ellipse cx="256.442" cy="258.172" rx="9.92278" ry="4" transform="rotate(-50 256.442 258.172)" fill="white"/>
<path fill-rule="evenodd" clip-rule="evenodd" d="M31.0713 167.482L46.1594 178.27C48.8876 180.221 51.9675 181.625 55.2292 182.406L57.8818 183.041C66.481 185.1 75.5406 183.827 83.24 179.479L113.977 162.122C124.561 156.145 137.405 155.748 148.338 161.06L178.065 175.501C191.219 181.891 206.811 180.594 218.728 172.118L227.699 165.737C245.748 152.899 269.466 151.252 289.117 161.471L292.926 163.451C289.807 158.098 284.005 154.5 277.362 154.5H48.3625C40.163 154.5 33.244 159.982 31.0713 167.482ZM295.345 171.703L294.517 173.296L285.426 168.568C268.44 159.735 247.937 161.159 232.336 172.256L223.365 178.637C209.065 188.808 190.354 190.365 174.569 182.697L144.843 168.255C136.273 164.092 126.206 164.404 117.911 169.088L87.1737 186.445C84.0386 188.216 80.7199 189.571 77.2991 190.5H277.362C287.304 190.5 295.362 182.441 295.362 172.5C295.362 172.233 295.357 171.967 295.345 171.703ZM54.677 190.5L53.3668 190.186C49.1014 189.165 45.0739 187.329 41.5062 184.778L31 177.265C33.0889 184.894 40.071 190.5 48.3625 190.5H54.677Z" fill="#089E5F"/>
<rect y="118.5" width="327" height="38" rx="19" fill="#EF5B15"/>
<rect x="29" y="89.5" width="269" height="33" rx="16.5" fill="#83372A"/>
<path d="M204 143L125 89H273L204 143Z" fill="#F2B45D"/>
</svg>
