<svg width="118" height="37" viewBox="0 0 118 37" fill="none" xmlns="http://www.w3.org/2000/svg">
<path fill-rule="evenodd" clip-rule="evenodd" d="M82.9512 33.2202C88.8696 29.0106 96.6471 28.4703 103.091 31.8211L104.378 32.4904L105.859 29.6427C105.863 29.7374 105.865 29.8326 105.865 29.9283C105.865 33.4915 102.976 36.3799 99.4131 36.3799H76.5912C78.8312 35.678 80.9799 34.6223 82.9512 33.2202ZM63.0233 36.3799C61.9616 36.0469 60.9169 35.6333 59.8979 35.1383L55.0433 32.7799C50.069 30.3634 44.2251 30.5441 39.4096 33.2634L33.8906 36.3799H63.0233ZM12.3445 25.8383L17.8174 29.7517C18.6712 30.3622 19.635 30.8017 20.6558 31.0461C23.5495 31.7388 26.5982 31.3106 29.1891 29.8475L35.4759 26.2973C37.9426 24.9044 40.5922 23.963 43.3075 23.4767L17.3342 23.4767C15.3235 23.4767 13.5277 24.3965 12.3445 25.8383ZM52.0677 23.4767C54.2852 23.8739 56.4635 24.5757 58.5391 25.5841L63.3937 27.9425C68.2203 30.2873 73.9417 29.8112 78.3143 26.701C80.196 25.3627 82.2105 24.2867 84.3067 23.4767L52.0677 23.4767Z" fill="#089E5F"/>
<rect y="10.5735" width="117.204" height="13.6201" rx="6.81004" fill="#EF5B15"/>
<rect x="10.3943" y="0.179199" width="96.4158" height="11.828" rx="5.91398" fill="#83372A"/>
<path d="M73.1183 19.3548L44.8029 0H97.8495L73.1183 19.3548Z" fill="#F2B45D"/>
</svg>
