<svg width="118" height="135" viewBox="0 0 118 135" fill="none" xmlns="http://www.w3.org/2000/svg">
<path fill-rule="evenodd" clip-rule="evenodd" d="M82.9512 82.2202C88.8696 78.0106 96.6471 77.4703 103.091 80.8211L104.378 81.4904L105.859 78.6427C105.863 78.7374 105.865 78.8326 105.865 78.9283C105.865 82.4915 102.976 85.3799 99.4131 85.3799H76.5912C78.8312 84.678 80.9799 83.6223 82.9512 82.2202ZM63.0233 85.3799C61.9616 85.0469 60.9169 84.6333 59.8979 84.1383L55.0433 81.7799C50.069 79.3634 44.2251 79.5441 39.4096 82.2634L33.8906 85.3799H63.0233ZM12.3445 74.8383L17.8174 78.7517C18.6712 79.3622 19.635 79.8017 20.6558 80.0461C23.5495 80.7388 26.5982 80.3106 29.1891 78.8475L35.4759 75.2973C37.9426 73.9044 40.5922 72.963 43.3075 72.4767L17.3342 72.4767C15.3235 72.4767 13.5277 73.3965 12.3445 74.8383ZM52.0677 72.4767C54.2852 72.8739 56.4635 73.5757 58.5391 74.5841L63.3937 76.9425C68.2203 79.2873 73.9417 78.8112 78.3143 75.701C80.196 74.3627 82.2105 73.2867 84.3067 72.4767L52.0677 72.4767Z" fill="#089E5F"/>
<rect y="59.5735" width="117.204" height="13.6201" rx="6.81004" fill="#EF5B15"/>
<rect x="10.3943" y="49.1792" width="96.4158" height="11.828" rx="5.91398" fill="#83372A"/>
<path d="M73.1183 68.3548L44.8029 49H97.8495L73.1183 68.3548Z" fill="#F2B45D"/>
<rect x="1.07532" y="108" width="115.054" height="26.8817" rx="13.4409" fill="#FFAE52"/>
<ellipse cx="15.9954" cy="120.216" rx="4.06352" ry="1.43369" transform="rotate(-30 15.9954 120.216)" fill="white"/>
<ellipse cx="69.8274" cy="126.686" rx="4.06352" ry="1.43369" transform="rotate(-30 69.8274 126.686)" fill="white"/>
<ellipse cx="31.2745" cy="127.122" rx="4.06352" ry="1.43369" transform="rotate(-140 31.2745 127.122)" fill="white"/>
<ellipse cx="76.7943" cy="114.936" rx="4.06352" ry="1.43369" transform="rotate(-140 76.7943 114.936)" fill="white"/>
<ellipse cx="100.809" cy="117.445" rx="4.06353" ry="1.43369" transform="rotate(-140 100.809 117.445)" fill="white"/>
<ellipse cx="48.5458" cy="118.456" rx="3.55655" ry="1.43369" transform="rotate(-50 48.5458 118.456)" fill="white"/>
<ellipse cx="91.9149" cy="127.417" rx="3.55655" ry="1.43369" transform="rotate(-50 91.9149 127.417)" fill="white"/>
<rect x="1.07532" width="115.054" height="26.8817" rx="13.4409" fill="#FFAE52"/>
<ellipse cx="15.9954" cy="12.2156" rx="4.06352" ry="1.43369" transform="rotate(-30 15.9954 12.2156)" fill="white"/>
<ellipse cx="69.8274" cy="18.6856" rx="4.06352" ry="1.43369" transform="rotate(-30 69.8274 18.6856)" fill="white"/>
<ellipse cx="31.2745" cy="19.1224" rx="4.06352" ry="1.43369" transform="rotate(-140 31.2745 19.1224)" fill="white"/>
<ellipse cx="76.7943" cy="6.93605" rx="4.06352" ry="1.43369" transform="rotate(-140 76.7943 6.93605)" fill="white"/>
<ellipse cx="100.809" cy="9.44502" rx="4.06353" ry="1.43369" transform="rotate(-140 100.809 9.44502)" fill="white"/>
<ellipse cx="48.5458" cy="10.4561" rx="3.55655" ry="1.43369" transform="rotate(-50 48.5458 10.4561)" fill="white"/>
<ellipse cx="91.9149" cy="19.4167" rx="3.55655" ry="1.43369" transform="rotate(-50 91.9149 19.4167)" fill="white"/>
</svg>
