<svg width="235" height="200" viewBox="0 0 235 200" fill="none" xmlns="http://www.w3.org/2000/svg">
<rect x="6.15051" y="4" width="222.108" height="45.7634" rx="11" stroke="white" stroke-width="8"/>
<rect x="8" y="150" width="222.108" height="45.7634" rx="11" stroke="white" stroke-width="8"/>
<path fill-rule="evenodd" clip-rule="evenodd" d="M22.6548 119.14L33.3083 126.757C35.4356 128.279 37.8372 129.374 40.3806 129.983C47.1508 131.603 54.2836 130.601 60.3454 127.178L76.879 117.842C87.463 111.865 100.307 111.468 111.24 116.779L125.04 123.483C136.009 128.812 149.011 127.73 158.948 120.662C173.543 110.281 192.452 108.416 208.702 115.551C206.335 112.74 202.79 110.954 198.827 110.954H34.6686C29.2072 110.954 24.5382 114.347 22.6548 119.14ZM211.718 123.286L210.602 125.432L208.028 124.094C193.809 116.699 176.645 117.891 163.585 127.181C151.264 135.944 135.144 137.286 121.544 130.679L107.745 123.975C99.1755 119.812 89.1083 120.123 80.8127 124.808L64.2791 134.144C62.4205 135.194 60.484 136.067 58.4942 136.76H198.827C205.954 136.76 211.731 130.983 211.731 123.857C211.731 123.666 211.726 123.475 211.718 123.286ZM35.2285 136.76C32.8976 135.892 30.6867 134.718 28.6551 133.265L22.8961 129.147C24.9161 133.635 29.4274 136.76 34.6686 136.76H35.2285Z" fill="white"/>
<path fill-rule="evenodd" clip-rule="evenodd" d="M124.739 88.0145L90.1307 64.3584H32.6167C26.0843 64.3584 20.7887 69.654 20.7887 76.1864C20.7887 82.7189 26.0843 88.0145 32.6167 88.0145H124.739ZM165.015 88.0145H201.793C208.326 88.0145 213.621 82.7189 213.621 76.1864C213.621 69.654 208.326 64.3584 201.793 64.3584H195.242L165.015 88.0145Z" fill="white"/>
<path fill-rule="evenodd" clip-rule="evenodd" d="M121.261 85.1471L146.954 102.71L169.396 85.1471H220.79C228.312 85.1471 234.41 91.245 234.41 98.7672C234.41 106.289 228.312 112.387 220.79 112.387H13.6201C6.09794 112.387 0 106.289 0 98.7672C0 91.245 6.09795 85.1471 13.6201 85.1471H121.261Z" fill="white"/>
</svg>
