<svg width="235" height="200" viewBox="0 0 235 200" fill="none" xmlns="http://www.w3.org/2000/svg">
<rect x="6.15051" y="4" width="222.108" height="45.7634" rx="11" fill="#FFB969" stroke="#FF8E0D" stroke-width="8"/>
<rect x="8" y="150" width="222.108" height="45.7634" rx="11" fill="#FFB969" stroke="#FF8E0D" stroke-width="8"/>
<path fill-rule="evenodd" clip-rule="evenodd" d="M22.6547 119.139L33.3081 126.757C35.4354 128.278 37.837 129.373 40.3803 129.982C47.1505 131.603 54.2833 130.601 60.345 127.178L76.8785 117.841C87.4624 111.865 100.307 111.468 111.24 116.779L125.039 123.483C136.008 128.811 149.01 127.73 158.947 120.662C173.542 110.281 192.451 108.416 208.701 115.551C206.334 112.74 202.789 110.953 198.826 110.953H34.6684C29.207 110.953 24.5381 114.346 22.6547 119.139ZM211.717 123.285L210.601 125.432L208.027 124.093C193.807 116.699 176.644 117.891 163.584 127.181C151.264 135.944 135.143 137.285 121.544 130.679L107.744 123.975C99.1749 119.812 89.1077 120.123 80.8122 124.808L64.2787 134.144C62.4202 135.193 60.4837 136.067 58.4939 136.76H198.826C205.952 136.76 211.729 130.983 211.729 123.857C211.729 123.665 211.725 123.475 211.717 123.285ZM35.2283 136.76C32.8974 135.891 30.6865 134.717 28.655 133.265L22.896 129.147C24.916 133.635 29.4273 136.76 34.6684 136.76H35.2283Z" fill="#089E5F"/>
<rect y="85.1469" width="234.409" height="27.2401" rx="13.6201" fill="#EF5B15"/>
<rect x="20.7886" y="64.3583" width="192.832" height="23.6559" rx="11.828" fill="#83372A"/>
<path d="M146.237 102.71L89.6058 63.9999H195.699L146.237 102.71Z" fill="#F2B45D"/>
</svg>
